<?xml version="1.0" encoding="UTF-8"?>
<!DOCTYPE svg PUBLIC "-//W3C//DTD SVG 1.1//EN" "http://www.w3.org/Graphics/SVG/1.1/DTD/svg11.dtd">
<svg version="1.1" xmlns="http://www.w3.org/2000/svg" xmlns:xlink="http://www.w3.org/1999/xlink" x="0" y="0" width="78" height="78" viewBox="0, 0, 78, 78">
  <g id="Logo">
    <path d="M13.5,9 C15.981,9 18,6.981 18,4.5 C18,2.019 15.981,0 13.5,0 C11.019,0 9,2.019 9,4.5 C9,6.981 11.019,9 13.5,9 z" fill="#000000"/>
    <path d="M13.5,13.5 C20.956,13.5 27,19.543 27,27 C27,32.877 23.24,37.861 18,39.716 L18,73.5 C18,75.985 15.985,78 13.5,78 C11.015,78 9,75.985 9,73.5 L9,39.716 C3.76,37.861 0,32.877 0,27 C0,19.543 6.043,13.5 13.5,13.5 z M13.5,18 C8.538,18 4.5,22.038 4.5,27 C4.5,31.962 8.538,36 13.5,36 C18.462,36 22.5,31.962 22.5,27 C22.5,22.038 18.462,18 13.5,18 z" fill="#000000"/>
    <path d="M64.5,13.5 C71.956,13.5 78,19.543 78,27 C78,32.877 74.24,37.861 69,39.716 L69,73.5 C69,75.985 66.985,78 64.5,78 C62.015,78 60,75.985 60,73.5 L60,39.716 C54.76,37.861 51,32.877 51,27 C51,19.543 57.043,13.5 64.5,13.5 z M64.5,18 C59.538,18 55.5,22.038 55.5,27 C55.5,31.962 59.538,36 64.5,36 C69.462,36 73.5,31.962 73.5,27 C73.5,22.038 69.462,18 64.5,18 z" fill="#A49D9F"/>
    <path d="M64.5,9 C62.019,9 60,6.981 60,4.5 C60,2.019 62.019,0 64.5,0 C66.981,0 69,2.019 69,4.5 C69,6.981 66.981,9 64.5,9 z" fill="#A49D9F"/>
    <path d="M39,0 C41.485,0 43.5,2.015 43.5,4.5 L43.5,38.284 C48.74,40.139 52.5,45.123 52.5,51 C52.5,58.457 46.457,64.5 39,64.5 C31.544,64.5 25.5,58.457 25.5,51 C25.5,45.123 29.26,40.139 34.5,38.284 L34.5,4.5 C34.5,2.015 36.515,0 39,0 z M39,42 C34.038,42 30,46.038 30,51 C30,55.962 34.038,60 39,60 C43.962,60 48,55.962 48,51 C48,46.038 43.962,42 39,42 z" fill="#D74A7E"/>
    <path d="M39,69 C41.481,69 43.5,71.019 43.5,73.5 C43.5,75.981 41.481,78 39,78 C36.519,78 34.5,75.981 34.5,73.5 C34.5,71.019 36.519,69 39,69 z" fill="#D74A7E"/>
  </g>
</svg>
