<svg enable-background="new 0 0 78 78" height="78" viewBox="0 0 78 78" width="78" xmlns="http://www.w3.org/2000/svg"><path d="m13.5 9c2.481 0 4.5-2.019 4.5-4.5s-2.019-4.5-4.5-4.5-4.5 2.019-4.5 4.5 2.019 4.5 4.5 4.5zm0 4.5c-7.457 0-13.5 6.043-13.5 13.5 0 5.877 3.76 10.861 9 12.716v33.784c0 2.485 2.015 4.5 4.5 4.5s4.5-2.015 4.5-4.5v-33.784c5.24-1.855 9-6.839 9-12.716 0-7.457-6.044-13.5-13.5-13.5zm0 22.5c-4.962 0-9-4.038-9-9s4.038-9 9-9 9 4.038 9 9-4.038 9-9 9zm51-22.5c-7.457 0-13.5 6.043-13.5 13.5 0 5.877 3.76 10.861 9 12.716v33.784c0 2.485 2.015 4.5 4.5 4.5s4.5-2.015 4.5-4.5v-33.784c5.24-1.855 9-6.839 9-12.716 0-7.457-6.044-13.5-13.5-13.5zm0 22.5c-4.962 0-9-4.038-9-9s4.038-9 9-9 9 4.038 9 9-4.038 9-9 9zm0-27c2.481 0 4.5-2.019 4.5-4.5s-2.019-4.5-4.5-4.5-4.5 2.019-4.5 4.5 2.019 4.5 4.5 4.5zm-21 29.284v-33.784c0-2.485-2.015-4.5-4.5-4.5s-4.5 2.015-4.5 4.5v33.784c-5.24 1.855-9 6.839-9 12.716 0 7.457 6.044 13.5 13.5 13.5 7.457 0 13.5-6.043 13.5-13.5 0-5.877-3.76-10.861-9-12.716zm-4.5 21.716c-4.962 0-9-4.038-9-9s4.038-9 9-9 9 4.038 9 9-4.038 9-9 9zm0 9c-2.481 0-4.5 2.019-4.5 4.5s2.019 4.5 4.5 4.5 4.5-2.019 4.5-4.5-2.019-4.5-4.5-4.5z" fill="#333f4f"/></svg>